<svg width="95" height="25" viewBox="0 0 95 25" fill="none" xmlns="http://www.w3.org/2000/svg">
<g clip-path="url(#clip0_2_14)">
<path d="M7.86644 12.0644H0L8.27608 8.23119L12.1069 0L12.1159 7.81962C12.119 10.1628 10.2156 12.0674 7.86347 12.0674L7.86644 12.0644Z" fill="white"/>
<path d="M17.2084 12.0644H25.0749L16.7989 8.23119L12.968 0L12.959 7.81962C12.956 10.1628 14.8593 12.0674 17.2115 12.0674L17.2084 12.0644Z" fill="white"/>
<path d="M17.2084 12.9356H25.0749L16.7989 16.7689L12.968 25.0001L12.959 17.1804C12.956 14.8372 14.8593 12.9326 17.2115 12.9326L17.2084 12.9356Z" fill="white"/>
<path d="M7.86644 12.9356H0L8.27608 16.7689L12.1069 25.0001L12.1159 17.1804C12.119 14.8372 10.2156 12.9326 7.86347 12.9326L7.86644 12.9356Z" fill="white"/>
<path d="M38.7781 17.9706V20.5482H29.3847V4.15186H32.0861V17.9706H38.7781Z" fill="white"/>
<path d="M40.5369 15.1107V4.15186H43.2384V14.9486C43.2384 16.8681 44.3407 18.229 46.759 18.229C49.1774 18.229 50.2827 16.8712 50.2827 14.9486V4.15186H52.9841V15.1137C52.9841 18.6496 50.355 20.8516 46.7621 20.8516C43.1691 20.8516 40.54 18.6496 40.54 15.1137L40.5369 15.1107Z" fill="white"/>
<path d="M71.7681 20.5452H69.0669V8.85924L64.0642 17.1025H63.7361L58.7336 8.83524V20.5452H56.0321V4.15186H58.9444L63.8989 12.35L68.8769 4.15186H71.7649V20.5482L71.7681 20.5452Z" fill="white"/>
<path d="M77.6676 4.15186V20.5482H74.9664V4.15186H77.6676Z" fill="white"/>
<path d="M90.9372 17.2437H83.9414L82.7906 20.5452H79.8545L85.8173 4.14893H89.0581L95 20.5452H92.0879L90.9372 17.2437ZM90.0461 14.7143L87.4405 7.31221L84.8356 14.7143H90.0492H90.0461Z" fill="white"/>
</g>
<defs>
<clipPath id="clip0_2_14">
<rect width="95" height="25" fill="white"/>
</clipPath>
</defs>
</svg>
